#!Matlab matrix to amc conversion
:FULLY-SPECIFIED
:DEGREES
1
root 0.000000 0.000000 0.000000 2.972499 6.141518 -0.031533
lowerback -8.093264 -4.715795 -3.706436
upperback -0.862363 -6.004059 3.345179
thorax 4.437563 -3.090442 4.889856
lowerneck -22.767078 -0.408318 -10.076635
upperneck 33.103622 0.501979 7.623005
head 15.161046 0.110074 5.112196
rclavicle 0.000000 0.000000
rhumerus -49.587814 -0.750194 -76.546472
rradius 14.371268
rwrist 7.587934
rhand -28.856200 -18.800500
rfingers 7.125020
rthumb -2.212790 -48.768800
lclavicle 0.000000 0.000000
lhumerus -3.332588 -23.742326 90.242579
lradius 51.855963
lwrist 22.134875
lhand -19.668800 -28.799300
lfingers 7.125020
lthumb 6.659510 1.076010
rfemur -32.875693 -1.934898 27.607251
rtibia 22.174856
rfoot -7.187887 10.386277
rtoes -20.766800
lfemur 21.243047 10.576854 -14.102979
ltibia 19.778991
lfoot 1.790997 -2.334559
ltoes -22.051700
2
root -0.024055 0.038043 0.481194 2.707238 6.412595 -1.252165
lowerback -7.445301 -5.014221 -2.726189
upperback -0.985153 -6.530373 4.140352
thorax 4.012263 -3.336280 5.162149
lowerneck -23.395551 -0.582288 -10.641983
upperneck 31.802588 0.391195 8.342226
head 14.779650 0.137391 5.423430
rclavicle 0.000000 0.000000
rhumerus -47.614859 -1.929419 -73.938787
rradius 14.539211
rwrist 7.104917
rhand -28.856200 -18.800500
rfingers 7.125020
rthumb -2.212790 -48.768800
lclavicle 0.000000 0.000000
lhumerus -5.257458 -22.245827 90.643546
lradius 53.325493
lwrist 22.036483
lhand -19.668800 -28.799300
lfingers 7.125020
lthumb 6.659510 1.076010
rfemur -32.094877 -2.039575 28.774396
rtibia 23.640777
rfoot -4.732022 10.871485
rtoes -20.766800
lfemur 20.790229 10.928127 -12.265439
ltibia 23.043197
lfoot 6.036058 0.508192
ltoes -22.051700
3
root -0.049103 0.093617 0.947639 2.511066 6.430043 -2.398220
lowerback -6.602342 -5.211310 -1.878950
upperback -1.247215 -6.923380 4.929986
thorax 3.312617 -3.505585 5.546619
lowerneck -23.935122 -0.729559 -11.199503
upperneck 30.922831 0.321690 8.897353
head 14.532232 0.156567 5.696193
rclavicle 0.000000 0.000000
rhumerus -46.039381 -3.094671 -71.790095
rradius 14.851913
rwrist 6.503080
rhand -28.856200 -18.800500
rfingers 7.125020
rthumb -2.212790 -48.768800
lclavicle 0.000000 0.000000
lhumerus -7.863411 -21.603385 91.760314
lradius 54.409012
lwrist 21.461359
lhand -19.668800 -28.799300
lfingers 7.125020
lthumb 6.659510 1.076010
rfemur -31.314381 -1.241763 29.727236
rtibia 24.830903
rfoot -4.913799 10.404773
rtoes -20.766800
lfemur 17.837434 11.095075 -10.632778
ltibia 30.961257
lfoot 9.469061 4.005843
ltoes -22.051700
4
root -0.077071 0.160975 1.391961 2.301468 6.319329 -3.321113
lowerback -5.997582 -5.216345 -1.134419
upperback -1.390779 -7.024846 5.398826
thorax 2.795704 -3.535620 5.669003
lowerneck -24.325116 -0.809010 -11.246968
upperneck 30.628461 0.248123 8.974897
head 14.485736 0.148624 5.713306
rclavicle 0.000000 -0.000000
rhumerus -45.122112 -5.038822 -70.167015
rradius 14.692976
rwrist 7.053317
rhand -28.856200 -18.800500
rfingers 7.125020
rthumb -2.212790 -48.768800
lclavicle 0.000000 -0.000000
lhumerus -10.502146 -21.876951 93.267586
lradius 54.634880
lwrist 20.643901
lhand -19.668800 -28.799300
lfingers 7.125020
lthumb 6.659510 1.076010
rfemur -30.142325 -0.386056 30.756723
rtibia 25.669015
rfoot -6.834669 9.812191
rtoes -20.766800
lfemur 12.675650 11.284607 -9.146147
ltibia 43.145374
lfoot 12.032983 7.030282
ltoes -22.051700
5
root -0.109655 0.238782 1.811424 2.053684 6.546288 -4.542694
lowerback -5.827508 -5.087297 0.110725
upperback -1.290367 -6.932708 5.619212
thorax 2.677397 -3.481450 5.225566
lowerneck -24.558485 -0.963063 -10.862891
upperneck 30.365432 -0.065953 8.900669
head 14.464276 0.051413 5.548382
rclavicle 0.000000 -0.000000
rhumerus -44.703095 -7.515184 -69.015925
rradius 14.380362
rwrist 7.977310
rhand -28.856200 -18.800500
rfingers 7.125020
rthumb -2.212790 -48.768800
lclavicle 0.000000 -0.000000
lhumerus -12.423999 -22.543315 94.534104
lradius 53.846978
lwrist 19.716161
lhand -19.668800 -28.799300
lfingers 7.125020
lthumb 6.659510 1.076010
rfemur -28.514220 -0.185503 32.305328
rtibia 25.748266
rfoot -8.954869 9.827289
rtoes -20.766800
lfemur 7.651061 11.464036 -7.195303
ltibia 54.447494
lfoot 15.045654 9.490147
ltoes -22.051700
